# xmcd
#
# Track frame offsets: 
#        150
#        14693
#        34216
#        57733
#        71329
#        83805
#        105954
#        117943
#        133279
#        150403
#        171883
#        184968
#        199328
#        213637
#        224991
#
# Disc length: 3583 seconds
#
# Revision: 0
# Processed by: cddbd v1.5.2PL0 Copyright (c) Steve Scherf et al.
# Submitted via: ExactAudioCopy v0.99pb5
#
DISCID=ea0dfd0f
DTITLE=The Twang - A Guide To Modern Country Living
DYEAR=2010
DGENRE=Country
TTITLE0=Beat It
TTITLE1=Kids In America
TTITLE2=A Wither Shade Of Pale
TTITLE3=Friday I'm In Love
TTITLE4=Brothers In Arms
TTITLE5=I Kissed A Girl
TTITLE6=Rehab
TTITLE7=Ride Like the Wind
TTITLE8=Space Lord
TTITLE9=Heroes
TTITLE10=Breaking The Law
TTITLE11=Genghis Khan
TTITLE12=Just A Gigolo
TTITLE13=Jeans On
TTITLE14=Seasons In The Sun
EXTD=
EXTT0=
EXTT1=
EXTT2=
EXTT3=
EXTT4=
EXTT5=
EXTT6=
EXTT7=
EXTT8=
EXTT9=
EXTT10=
EXTT11=
EXTT12=
EXTT13=
EXTT14=
PLAYORDER=
